<svg width="418" height="134" viewBox="0 0 418 134" fill="none" xmlns="http://www.w3.org/2000/svg">
<g clip-path="url(#clip0_91_6)">
<path d="M0 133.782C0 133.597 10.476 118.258 23.28 99.6956L46.5601 65.9462L24.78 33.2891C12.801 15.3276 3 0.455824 3 0.240614C3 0.0254144 14.5553 -0.0618556 28.6784 0.0466844L54.3569 0.244034L63.7226 15.4376C68.8738 23.7941 73.3733 30.5362 73.7216 30.4202C74.0699 30.3041 78.5101 23.4669 83.5889 15.2266L92.8229 0.244034L118.786 0.0468144C133.066 -0.0616556 144.75 0.0448144 144.75 0.283624C144.75 0.693604 131.868 19.8162 111.11 50.2205L101.846 63.7906L107.772 72.5173C111.031 77.317 121.715 93.1409 131.515 107.682L149.331 134.119H122.742H96.1519L85.3327 117.475C79.3821 108.321 74.1727 100.718 73.7562 100.579C73.3398 100.441 68.153 107.93 62.2302 117.223L51.4613 134.119H25.7307C11.5788 134.119 0 133.967 0 133.782ZM220.5 72.619V46.369H228.375H236.25V48.3107V50.2524L238.522 48.3405C242.429 45.0534 248.389 44.8703 254.215 47.8587C259.991 50.8216 263.345 57.0416 263.468 65.0208C263.611 74.3205 260.435 80.7136 254.055 83.9685C249.873 86.1018 242.178 85.7377 238.671 83.2406L236.25 81.5169V90.193V98.869H228.375H220.5V72.619ZM246.019 70.5565C248.204 67.789 247.784 61.7701 245.264 59.7292C241.332 56.5459 237.002 59.0344 236.455 64.7917C235.995 69.6263 238.067 72.619 241.875 72.619C243.725 72.619 244.822 72.0731 246.019 70.5565ZM282.853 85.3116C281.054 84.9579 278.486 83.8326 277.146 82.8111C273.128 79.7459 272.25 76.9241 272.25 67.0682V58.369H269.625H267V53.494V48.619H269.625H272.25V42.994V37.369H280.125H288V42.994V48.619H292.5H297V53.494V58.369H292.5H288V65.0272C288 72.6761 288.681 73.8303 292.745 73.0679L295.256 72.5968L296.145 76.5454C296.633 78.7172 297.22 81.2017 297.449 82.0666C297.814 83.4454 297.32 83.7919 293.446 84.8791C288.624 86.2321 287.723 86.2688 282.853 85.3116ZM143.164 84.3343C136.681 82.0177 133.301 78.0927 131.499 70.7899C130.377 66.2443 130.378 65.4885 131.516 60.8792C132.193 58.1347 133.618 54.747 134.683 53.3508C140.169 46.1593 151.111 43.7475 160.005 47.7696C163.138 49.1861 167.47 52.9777 168.804 55.4701C169.629 57.0108 169.336 57.2145 162.051 60.1685L157.228 62.1246L155.628 60.6218C153.756 58.8633 150.889 58.6785 148.831 60.1836C147.673 61.0301 147.375 62.1587 147.375 65.6933C147.375 68.3585 147.787 70.6351 148.404 71.3788C149.983 73.2813 154.103 72.973 155.75 70.8291L157.125 69.0392L163.363 71.9403L169.601 74.8413L168.238 77.1923C166.549 80.1061 162.893 82.9772 159.189 84.299C155.61 85.5763 146.694 85.5961 143.164 84.3343ZM184.875 84.4419C176.306 81.362 172.202 75.1575 172.276 65.3936C172.376 52.1259 183.801 43.4992 197.505 46.3441C206.733 48.2599 213 55.9017 213 65.2388V69.619H200.619C188.577 69.619 188.262 69.6587 189.141 71.0657C191.16 74.2988 196.245 74.631 200.313 71.7954L202.251 70.4444L206.313 74.5883L210.375 78.7321L207.811 80.8981C206.401 82.0894 203.725 83.5827 201.865 84.2165C197.992 85.5361 188.278 85.665 184.875 84.4419ZM197.25 60.8656C197.25 58.943 194.982 56.869 192.88 56.869C190.603 56.869 188.25 58.8339 188.25 60.7353C188.25 61.9265 188.876 62.119 192.75 62.119C196.455 62.119 197.25 61.8976 197.25 60.8656ZM304.5 65.869V46.369H312.375H320.25V65.869V85.369H312.375H304.5V65.869ZM340.277 84.3301C331.984 81.2471 327.776 75.7836 327.17 67.3104C326.526 58.3168 330.589 51.2874 338.444 47.8057C343.984 45.3496 353.527 45.3228 358.875 47.7485C365.904 50.9369 369.621 56.1329 370.311 63.7342C371.078 72.1968 367.68 78.9009 360.692 82.7122C357.19 84.6221 355.687 84.9623 349.875 85.1597C345.387 85.312 342.17 85.034 340.277 84.3301ZM351.554 72.2219C356.352 68.8612 354.178 58.369 348.684 58.369C344.591 58.369 341.821 64.4437 343.778 69.1279C345.473 73.1838 348.475 74.3784 351.554 72.2219ZM377.25 65.869V46.369H385.125H393V49.0517V51.7344L395.255 49.4794C398.293 46.441 404.065 45.1076 408.736 46.3652C412.763 47.4497 416.616 51.2419 417.717 55.2042C418.143 56.7386 418.493 64.1534 418.496 71.6815V85.369H410.621H402.746V74.2859C402.746 65.4687 402.507 62.862 401.578 61.5359C399.923 59.1727 396.535 59.3217 394.55 61.8452C393.142 63.6361 392.996 64.8312 392.996 74.5952V85.369H385.121H377.246L377.25 65.869ZM307.154 41.6815C303.382 38.3843 303.423 32.165 307.236 29.1662C309.694 27.2326 314.718 27.1201 316.975 28.9482C323.171 33.9668 320.092 43.3107 312.23 43.3524C310.022 43.3641 308.508 42.8656 307.154 41.6815Z" fill="white"/>
</g>
<defs>
<clipPath id="clip0_91_6">
<rect width="418" height="134" fill="white"/>
</clipPath>
</defs>
</svg>
